<?xml version="1.0" encoding="utf-8"?>
<!-- Generator: Adobe Illustrator 21.1.0, SVG Export Plug-In . SVG Version: 6.00 Build 0)  -->
<svg version="1.1" xmlns="http://www.w3.org/2000/svg" xmlns:xlink="http://www.w3.org/1999/xlink" x="0px" y="0px"
	 viewBox="0 0 157 145" style="enable-background:new 0 0 157 145;" xml:space="preserve">
<style type="text/css">
	.st0{display:none;}
	.st1{display:inline;}
	.st2{fill:#ACFFDF;}
	.st3{fill:none;stroke:#025D4A;stroke-width:17;stroke-miterlimit:10;}
	.st4{fill:#025D4A;}
</style>
<g id="bg" class="st0">
	<g class="st1">
		<rect x="-382" y="4" class="st2" width="499" height="501"/>
	</g>
</g>
<g id="Layer_2">
	<g id="_x33_OKSf4.tif">
		<g>
			<g>
				<path class="st4" d="M105.9,44.3c-3.5,0-6.7,0-10.1,0c0-3.3,0-6.6,0-9.9c-18.5,0-36.9,0-55.4,0c0,23.4,0,46.8,0,70.4
					c18.4,0,36.8,0,55.4,0c0-3.2,0-6.5,0-9.9c3.4,0,6.7,0,10.1,0c0,1.5,0,2.9,0,4.3c0,2.3,0.1,4.7-0.2,7c-0.5,5.1-4.8,8.8-10,8.8
					c-11.9,0-23.8,0-35.7,0c-6.5,0-12.9,0-19.4,0c-6,0-10.4-4.3-10.4-10.3c0-23.3,0-46.6,0-70c0-6.3,4.3-10.5,10.6-10.5
					c18.1,0,36.2,0,54.4,0c6.4,0,10.7,4.3,10.7,10.7C105.9,38,105.9,41.1,105.9,44.3z"/>
				<path class="st4" d="M111.5,74.7c-15.3,0-30.5,0-45.9,0c0-3.4,0-6.7,0-10.1c15.3,0,30.6,0,45.9,0c-2.7-2.6-5.3-5.1-7.8-7.6
					c2.6-2.6,4.9-4.9,7.2-7.2c6.5,6.5,13.2,13.2,19.8,19.8c-6.5,6.5-13.2,13.2-19.8,19.7c-2.2-2.2-4.5-4.5-6.8-6.8
					c2.4-2.4,5-5,7.5-7.6C111.6,74.9,111.5,74.8,111.5,74.7z"/>
			</g>
		</g>
	</g>
</g>
</svg>
