<?xml version="1.0" encoding="UTF-8" standalone="no"?>
<!-- Created with Inkscape (http://www.inkscape.org/) -->

<svg
   xmlns:dc="http://purl.org/dc/elements/1.1/"
   xmlns:cc="http://creativecommons.org/ns#"
   xmlns:rdf="http://www.w3.org/1999/02/22-rdf-syntax-ns#"
   xmlns:svg="http://www.w3.org/2000/svg"
   xmlns="http://www.w3.org/2000/svg"
   xmlns:sodipodi="http://sodipodi.sourceforge.net/DTD/sodipodi-0.dtd"
   xmlns:inkscape="http://www.inkscape.org/namespaces/inkscape"
   width="280"
   height="280"
   viewBox="0 0 280 280"
   id="svg2"
   version="1.1"
   inkscape:version="0.92.3 (2405546, 2018-03-11)"
   sodipodi:docname="micromanage.svg">
  <defs
     id="defs4">
    <clipPath
       clipPathUnits="userSpaceOnUse"
       id="clipPath4247">
      <path
         style="fill:#3e3e3e;fill-opacity:1;fill-rule:evenodd;stroke:none;stroke-width:1px;stroke-linecap:butt;stroke-linejoin:miter;stroke-opacity:1"
         d="m 280,492.3622 -80,20 -30,0 0,-200 220,0 0,200 -30,0 -80,-20 z"
         id="path4249"
         inkscape:connector-curvature="0" />
    </clipPath>
  </defs>
  <sodipodi:namedview
     id="base"
     pagecolor="#ffffff"
     bordercolor="#666666"
     borderopacity="1.0"
     inkscape:pageopacity="0.0"
     inkscape:pageshadow="2"
     inkscape:zoom="2"
     inkscape:cx="-105.0753"
     inkscape:cy="130.03025"
     inkscape:document-units="px"
     inkscape:current-layer="g4693"
     showgrid="true"
     inkscape:window-width="1920"
     inkscape:window-height="1017"
     inkscape:window-x="-8"
     inkscape:window-y="-8"
     inkscape:window-maximized="1"
     fit-margin-top="0"
     fit-margin-left="0"
     fit-margin-right="0"
     fit-margin-bottom="0"
     units="px">
    <inkscape:grid
       type="xygrid"
       id="grid4136"
       visible="false"
       originx="0"
       originy="-1.589644e-006" />
  </sodipodi:namedview>
  <metadata
     id="metadata7">
    <rdf:RDF>
      <cc:Work
         rdf:about="">
        <dc:format>image/svg+xml</dc:format>
        <dc:type
           rdf:resource="http://purl.org/dc/dcmitype/StillImage" />
        <dc:title />
      </cc:Work>
    </rdf:RDF>
  </metadata>
  <g
     inkscape:label="Layer 1"
     inkscape:groupmode="layer"
     id="layer1"
     transform="translate(0,-772.36218)">
    <rect
       style="opacity:1;fill:none;fill-opacity:1;stroke:none;stroke-width:30;stroke-linecap:butt;stroke-linejoin:miter;stroke-miterlimit:4;stroke-dasharray:none;stroke-opacity:1"
       id="rect4251"
       width="280"
       height="280"
       x="140"
       y="292.36221" />
    <g
       id="g4693"
       transform="translate(-140,469.99999)">
      <rect
         y="312.36218"
         x="150"
         height="260"
         width="260"
         id="rect4620"
         style="opacity:1;fill:#ffffff;fill-opacity:1;stroke:#3377aa;stroke-width:20;stroke-linecap:butt;stroke-linejoin:miter;stroke-miterlimit:4;stroke-dasharray:none;stroke-opacity:1" />
      <g
         aria-label="μ"
         style="font-style:normal;font-weight:normal;font-size:228.20967102px;line-height:1.25;font-family:sans-serif;letter-spacing:0px;word-spacing:0px;fill:#3377aa;fill-opacity:1;stroke:none;stroke-width:5.70524168"
         id="text827">
        <path
           sodipodi:type="inkscape:offset"
           inkscape:radius="0"
           inkscape:original="M 231.70117 371.11914 L 231.70117 534.81055 L 251.53516 534.81055 L 251.53516 477.53516 C 255.8438 483.0324 259.77993 486.71119 263.3457 488.56836 C 268.10007 491.01983 273.56074 492.24414 279.72656 492.24414 C 286.63525 492.24414 292.69053 490.72155 297.89062 487.67578 C 301.67926 485.44717 305.50426 481.36288 309.36719 475.41992 L 309.36719 489.45898 L 327.30664 489.45898 L 327.30664 371.11914 L 307.58398 371.11914 L 307.58398 421.59766 C 307.58398 439.72368 306.61896 451.3878 304.6875 456.58789 C 302.75604 461.71369 299.44962 465.91105 294.76953 469.17969 C 290.08945 472.44831 284.7789 474.08203 278.83594 474.08203 C 273.19012 474.08203 268.1759 472.5224 263.79297 469.40234 C 259.48432 466.28229 256.3631 462.04789 254.43164 456.69922 C 252.50018 451.27627 251.53516 439.46399 251.53516 421.26367 L 251.53516 371.11914 L 231.70117 371.11914 z "
           style="font-style:normal;font-variant:normal;font-weight:normal;font-stretch:normal;font-family:helvetica;-inkscape-font-specification:helvetica;fill:#3377aa;fill-opacity:1;stroke-width:5.70524168"
           id="path823"
           d="m 231.70117,371.11914 v 163.69141 h 19.83399 v -57.27539 c 4.30864,5.49724 8.24477,9.17603 11.81054,11.0332 4.75437,2.45147 10.21504,3.67578 16.38086,3.67578 6.90869,0 12.96397,-1.52259 18.16406,-4.56836 3.78864,-2.22861 7.61364,-6.3129 11.47657,-12.25586 v 14.03906 h 17.93945 V 371.11914 h -19.72266 v 50.47852 c 0,18.12602 -0.96502,29.79014 -2.89648,34.99023 -1.93146,5.1258 -5.23788,9.32316 -9.91797,12.5918 -4.68008,3.26862 -9.99063,4.90234 -15.93359,4.90234 -5.64582,0 -10.66004,-1.55963 -15.04297,-4.67969 -4.30865,-3.12005 -7.42987,-7.35445 -9.36133,-12.70312 -1.93146,-5.42295 -2.89648,-17.23523 -2.89648,-35.43555 v -50.14453 z" />
      </g>
    </g>
    <path
       style="fill:none;fill-opacity:1;fill-rule:evenodd;stroke:none;stroke-width:1px;stroke-linecap:butt;stroke-linejoin:miter;stroke-opacity:1"
       d="m 220,322.36133 -40,180 20,0 31.11133,-140 38.88867,140 20,0 38.88867,-140 31.11133,140 20,0 -40,-180 -20,0 -40,144 -40,-144 -20,0 z"
       id="path4194"
       clip-path="url(#clipPath4247)"
       inkscape:connector-curvature="0" />
    <path
       style="fill:none;fill-rule:evenodd;stroke:none;stroke-width:1px;stroke-linecap:butt;stroke-linejoin:miter;stroke-opacity:1"
       d="m 230,452.3622 c 0,0 0,50 50,50 50,0 50,-50 50,-50 l -10,0 c 0,0 0,30 -40,30 -40,0 -40,-30 -40,-30 l -10,0 0,0 z"
       id="path4184"
       inkscape:connector-curvature="0" />
    <ellipse
       style="opacity:1;fill:none;fill-opacity:1;stroke:none;stroke-width:30;stroke-linecap:butt;stroke-linejoin:miter;stroke-miterlimit:4;stroke-dasharray:none;stroke-opacity:1"
       id="path4539"
       cx="330"
       cy="477.36221"
       rx="50"
       ry="65" />
  </g>
</svg>
